<svg width="21" height="24" viewBox="0 0 21 24" fill="none" xmlns="http://www.w3.org/2000/svg">
<path d="M17.2045 12.7628C17.2166 11.8428 17.4669 10.9408 17.9321 10.1407C18.3972 9.34057 19.0621 8.66831 19.8648 8.18648C19.3548 7.4754 18.6821 6.89021 17.9 6.47739C17.1178 6.06457 16.2479 5.83549 15.3592 5.80834C13.4636 5.61407 11.6258 6.91584 10.6598 6.91584C9.67508 6.91584 8.18777 5.82763 6.58619 5.8598C5.55024 5.89248 4.54062 6.1866 3.65571 6.7135C2.7708 7.2404 2.04077 7.98212 1.53676 8.86638C-0.646507 12.5569 0.982015 17.9808 3.0734 20.9639C4.11977 22.4247 5.34267 24.0564 6.94281 23.9985C8.50865 23.9351 9.09346 23.0237 10.9836 23.0237C12.8561 23.0237 13.4048 23.9985 15.0374 23.9617C16.7176 23.9351 17.7762 22.4945 18.7859 21.0199C19.5377 19.979 20.1162 18.8287 20.5 17.6114C19.5238 17.2083 18.6908 16.5336 18.1048 15.6714C17.5188 14.8091 17.2056 13.7976 17.2045 12.7628Z" fill="#E5EBF0"/>
<path d="M14.1211 3.84726C15.0372 2.77352 15.4885 1.3934 15.3792 0C13.9796 0.143525 12.6867 0.796627 11.7582 1.82918C11.3043 2.3336 10.9566 2.92044 10.735 3.55614C10.5135 4.19184 10.4224 4.86393 10.4671 5.53401C11.1672 5.54104 11.8597 5.3929 12.4927 5.10073C13.1256 4.80855 13.6824 4.37997 14.1211 3.84726Z" fill="#E5EBF0"/>
</svg>
