<svg width="21" height="24" viewBox="0 0 21 24" fill="none" xmlns="http://www.w3.org/2000/svg">
<path d="M0.910929 0.379486C0.625428 0.742808 0.479752 1.20985 0.503726 1.68499V22.312C0.474246 22.7879 0.620597 23.2571 0.910929 23.6175L0.971576 23.6921L11.7061 12.1384V11.8586L0.971576 0.314209L0.910929 0.379486Z" fill="url(#paint0_linear_243_1578)"/>
<path d="M15.2582 15.9896L11.7061 12.1383V11.8586L15.2582 8.00732L15.3362 8.06328L19.5902 10.6556C20.8031 11.3923 20.8031 12.6046 19.5902 13.3506L15.3535 15.9429L15.2582 15.9896Z" fill="url(#paint1_linear_243_1578)"/>
<path d="M15.3625 15.934L11.7063 11.9988L0.911133 23.6178C1.15595 23.8523 1.46932 23.9873 1.79689 23.9992C2.12446 24.0111 2.44557 23.8993 2.70456 23.6831L15.3625 15.934Z" fill="url(#paint2_linear_243_1578)"/>
<path d="M15.3625 8.06397L2.70456 0.32418C2.44726 0.104961 2.12639 -0.00960253 1.79838 0.000630735C1.47036 0.010864 1.1562 0.145241 0.911133 0.380131L11.7063 11.9991L15.3625 8.06397Z" fill="url(#paint3_linear_243_1578)"/>
<defs>
<linearGradient id="paint0_linear_243_1578" x1="10.7531" y1="1.47051" x2="-4.85212" y2="15.9693" gradientUnits="userSpaceOnUse">
<stop stop-color="#00A0FF"/>
<stop offset="0.01" stop-color="#00A1FF"/>
<stop offset="0.26" stop-color="#00BEFF"/>
<stop offset="0.51" stop-color="#00D2FF"/>
<stop offset="0.76" stop-color="#00DFFF"/>
<stop offset="1" stop-color="#00E3FF"/>
</linearGradient>
<linearGradient id="paint1_linear_243_1578" x1="21.1757" y1="11.9984" x2="0.21775" y2="11.9984" gradientUnits="userSpaceOnUse">
<stop stop-color="#FFE000"/>
<stop offset="0.41" stop-color="#FFBD00"/>
<stop offset="0.78" stop-color="#FFA500"/>
<stop offset="1" stop-color="#FF9C00"/>
</linearGradient>
<linearGradient id="paint2_linear_243_1578" x1="13.3785" y1="14.1435" x2="-7.78741" y2="33.8001" gradientUnits="userSpaceOnUse">
<stop stop-color="#FF3A44"/>
<stop offset="1" stop-color="#C31162"/>
</linearGradient>
<linearGradient id="paint3_linear_243_1578" x1="-1.80933" y1="-6.4831" x2="7.63936" y2="2.29565" gradientUnits="userSpaceOnUse">
<stop stop-color="#32A071"/>
<stop offset="0.07" stop-color="#2DA771"/>
<stop offset="0.48" stop-color="#15CF74"/>
<stop offset="0.8" stop-color="#06E775"/>
<stop offset="1" stop-color="#00F076"/>
</linearGradient>
</defs>
</svg>
